<mxfile host="65bd71144e" pages="2">
    <diagram id="qNBd8BzP7C1q9Nawp0v0" name="基础符号">
        <mxGraphModel dx="818" dy="607" grid="1" gridSize="10" guides="1" tooltips="1" connect="1" arrows="1" fold="1" page="1" pageScale="1" pageWidth="827" pageHeight="1169" math="0" shadow="0">
            <root>
                <mxCell id="0"/>
                <mxCell id="1" parent="0"/>
                <mxCell id="hzi3qwqsZ8rUxCeRSiQz-1" value="用户" style="shape=umlActor;verticalLabelPosition=bottom;verticalAlign=top;html=1;fontFamily=阿里汉仪智能黑体;fontSource=https%3A%2F%2Fhellowebfonts.oss-cn-beijing.aliyuncs.com%2F698F3099-E62F-4C3B-B30A-04FB735069FE%2F202209%2F44C5C1037925EC78.ttf;fontSize=16;" parent="1" vertex="1">
                    <mxGeometry x="90" y="120" width="30" height="60" as="geometry"/>
                </mxCell>
                <mxCell id="hzi3qwqsZ8rUxCeRSiQz-2" value="&lt;h1&gt;角色&lt;/h1&gt;&lt;p&gt;&lt;span style=&quot;color: rgb(18, 18, 18); font-size: medium; background-color: rgb(255, 255, 255);&quot;&gt;可以是用户、外部系统、机器等&lt;/span&gt;&lt;br&gt;&lt;/p&gt;" style="text;html=1;strokeColor=none;fillColor=none;spacing=5;spacingTop=-20;whiteSpace=wrap;overflow=hidden;rounded=0;shadow=0;fontFamily=阿里汉仪智能黑体;fontSource=https%3A%2F%2Fhellowebfonts.oss-cn-beijing.aliyuncs.com%2F698F3099-E62F-4C3B-B30A-04FB735069FE%2F202209%2F44C5C1037925EC78.ttf;fontSize=14;" parent="1" vertex="1">
                    <mxGeometry x="210" y="90" width="190" height="120" as="geometry"/>
                </mxCell>
                <mxCell id="hzi3qwqsZ8rUxCeRSiQz-3" value=":Object" style="shape=umlLifeline;perimeter=lifelinePerimeter;whiteSpace=wrap;html=1;container=1;collapsible=0;recursiveResize=0;outlineConnect=0;fontFamily=阿里汉仪智能黑体;fontSource=https%3A%2F%2Fhellowebfonts.oss-cn-beijing.aliyuncs.com%2F698F3099-E62F-4C3B-B30A-04FB735069FE%2F202209%2F44C5C1037925EC78.ttf;fontSize=16;" parent="1" vertex="1">
                    <mxGeometry x="55" y="250" width="100" height="320" as="geometry"/>
                </mxCell>
                <mxCell id="hzi3qwqsZ8rUxCeRSiQz-4" value="&lt;h1&gt;生命线&lt;/h1&gt;&lt;p&gt;&lt;span style=&quot;color: rgb(18, 18, 18); font-size: medium; background-color: rgb(255, 255, 255);&quot;&gt;在时序图中表示为从对象图标向下延伸的一条虚线，表示对象存在的时间。&lt;/span&gt;&lt;br&gt;&lt;/p&gt;" style="text;html=1;strokeColor=none;fillColor=none;spacing=5;spacingTop=-20;whiteSpace=wrap;overflow=hidden;rounded=0;shadow=0;fontFamily=阿里汉仪智能黑体;fontSource=https%3A%2F%2Fhellowebfonts.oss-cn-beijing.aliyuncs.com%2F698F3099-E62F-4C3B-B30A-04FB735069FE%2F202209%2F44C5C1037925EC78.ttf;fontSize=14;" parent="1" vertex="1">
                    <mxGeometry x="224" y="410" width="196" height="150" as="geometry"/>
                </mxCell>
                <mxCell id="hzi3qwqsZ8rUxCeRSiQz-5" value="" style="html=1;points=[];perimeter=orthogonalPerimeter;fontFamily=阿里汉仪智能黑体;fontSource=https%3A%2F%2Fhellowebfonts.oss-cn-beijing.aliyuncs.com%2F698F3099-E62F-4C3B-B30A-04FB735069FE%2F202209%2F44C5C1037925EC78.ttf;fontSize=16;" parent="1" vertex="1">
                    <mxGeometry x="610" y="125" width="10" height="80" as="geometry"/>
                </mxCell>
                <mxCell id="hzi3qwqsZ8rUxCeRSiQz-6" value="dispatch" style="html=1;verticalAlign=bottom;startArrow=oval;endArrow=block;startSize=8;rounded=0;fontFamily=阿里汉仪智能黑体;fontSource=https%3A%2F%2Fhellowebfonts.oss-cn-beijing.aliyuncs.com%2F698F3099-E62F-4C3B-B30A-04FB735069FE%2F202209%2F44C5C1037925EC78.ttf;fontSize=16;" parent="1" target="hzi3qwqsZ8rUxCeRSiQz-5" edge="1">
                    <mxGeometry relative="1" as="geometry">
                        <mxPoint x="540" y="125" as="sourcePoint"/>
                    </mxGeometry>
                </mxCell>
                <mxCell id="hzi3qwqsZ8rUxCeRSiQz-7" value="&lt;h1&gt;简单消息&lt;/h1&gt;&lt;p&gt;&lt;span style=&quot;color: rgb(18, 18, 18); font-size: medium; background-color: rgb(255, 255, 255);&quot;&gt;表示控制如何从一个对象发送给另一个对象，并不包含控制的细节。&lt;/span&gt;&lt;br&gt;&lt;/p&gt;" style="text;html=1;strokeColor=none;fillColor=none;spacing=5;spacingTop=-20;whiteSpace=wrap;overflow=hidden;rounded=0;shadow=0;fontFamily=阿里汉仪智能黑体;fontSource=https%3A%2F%2Fhellowebfonts.oss-cn-beijing.aliyuncs.com%2F698F3099-E62F-4C3B-B30A-04FB735069FE%2F202209%2F44C5C1037925EC78.ttf;fontSize=14;" parent="1" vertex="1">
                    <mxGeometry x="744" y="90" width="196" height="150" as="geometry"/>
                </mxCell>
                <mxCell id="hzi3qwqsZ8rUxCeRSiQz-8" value="" style="html=1;points=[];perimeter=orthogonalPerimeter;fontFamily=阿里汉仪智能黑体;fontSource=https%3A%2F%2Fhellowebfonts.oss-cn-beijing.aliyuncs.com%2F698F3099-E62F-4C3B-B30A-04FB735069FE%2F202209%2F44C5C1037925EC78.ttf;fontSize=16;" parent="1" vertex="1">
                    <mxGeometry x="610" y="315" width="10" height="80" as="geometry"/>
                </mxCell>
                <mxCell id="hzi3qwqsZ8rUxCeRSiQz-9" value="dispatch" style="html=1;verticalAlign=bottom;endArrow=block;entryX=0;entryY=0;rounded=0;fontFamily=阿里汉仪智能黑体;fontSource=https%3A%2F%2Fhellowebfonts.oss-cn-beijing.aliyuncs.com%2F698F3099-E62F-4C3B-B30A-04FB735069FE%2F202209%2F44C5C1037925EC78.ttf;fontSize=16;" parent="1" target="hzi3qwqsZ8rUxCeRSiQz-8" edge="1">
                    <mxGeometry relative="1" as="geometry">
                        <mxPoint x="540" y="315" as="sourcePoint"/>
                    </mxGeometry>
                </mxCell>
                <mxCell id="hzi3qwqsZ8rUxCeRSiQz-10" value="&lt;h1&gt;同步消息&lt;/h1&gt;&lt;span style=&quot;font-family: 宋体; text-indent: 26px; background-color: rgb(255, 255, 255); font-size: 16px;&quot;&gt;消息的发送者把控制传递给消息的接收者，然后停止活动，等待消息的接收者放弃或者返回控制。&lt;/span&gt;&lt;b style=&quot;color: rgb(18, 18, 18); font-size: medium;&quot;&gt;使用实心箭头。&lt;/b&gt;&lt;span style=&quot;font-family: 宋体; font-size: 13px; text-indent: 26px; background-color: rgb(255, 255, 255);&quot;&gt;&lt;br&gt;&lt;/span&gt;" style="text;html=1;strokeColor=none;fillColor=none;spacing=5;spacingTop=-20;whiteSpace=wrap;overflow=hidden;rounded=0;shadow=0;fontFamily=阿里汉仪智能黑体;fontSource=https%3A%2F%2Fhellowebfonts.oss-cn-beijing.aliyuncs.com%2F698F3099-E62F-4C3B-B30A-04FB735069FE%2F202209%2F44C5C1037925EC78.ttf;fontSize=14;" parent="1" vertex="1">
                    <mxGeometry x="744" y="275" width="196" height="170" as="geometry"/>
                </mxCell>
                <mxCell id="hzi3qwqsZ8rUxCeRSiQz-11" value="" style="html=1;points=[];perimeter=orthogonalPerimeter;fontFamily=阿里汉仪智能黑体;fontSource=https%3A%2F%2Fhellowebfonts.oss-cn-beijing.aliyuncs.com%2F698F3099-E62F-4C3B-B30A-04FB735069FE%2F202209%2F44C5C1037925EC78.ttf;fontSize=16;" parent="1" vertex="1">
                    <mxGeometry x="100" y="650" width="10" height="80" as="geometry"/>
                </mxCell>
                <mxCell id="hzi3qwqsZ8rUxCeRSiQz-12" value="&lt;h1&gt;活动条&lt;/h1&gt;&lt;p&gt;&lt;span style=&quot;color: rgb(18, 18, 18); font-size: medium; background-color: rgb(255, 255, 255);&quot;&gt;在生命线的虚线上可以用活动条来表示某种行为的开始和结束，一般用小矩形来表示。&lt;/span&gt;&lt;br&gt;&lt;/p&gt;" style="text;html=1;strokeColor=none;fillColor=none;spacing=5;spacingTop=-20;whiteSpace=wrap;overflow=hidden;rounded=0;shadow=0;fontFamily=阿里汉仪智能黑体;fontSource=https%3A%2F%2Fhellowebfonts.oss-cn-beijing.aliyuncs.com%2F698F3099-E62F-4C3B-B30A-04FB735069FE%2F202209%2F44C5C1037925EC78.ttf;fontSize=14;" parent="1" vertex="1">
                    <mxGeometry x="220" y="630" width="204" height="150" as="geometry"/>
                </mxCell>
                <mxCell id="hzi3qwqsZ8rUxCeRSiQz-13" value="" style="html=1;points=[];perimeter=orthogonalPerimeter;fontFamily=阿里汉仪智能黑体;fontSource=https%3A%2F%2Fhellowebfonts.oss-cn-beijing.aliyuncs.com%2F698F3099-E62F-4C3B-B30A-04FB735069FE%2F202209%2F44C5C1037925EC78.ttf;fontSize=16;" parent="1" vertex="1">
                    <mxGeometry x="610" y="740" width="10" height="40" as="geometry"/>
                </mxCell>
                <mxCell id="hzi3qwqsZ8rUxCeRSiQz-14" value="self call" style="edgeStyle=orthogonalEdgeStyle;html=1;align=left;spacingLeft=2;endArrow=block;rounded=0;entryX=1;entryY=0;fontFamily=阿里汉仪智能黑体;fontSource=https%3A%2F%2Fhellowebfonts.oss-cn-beijing.aliyuncs.com%2F698F3099-E62F-4C3B-B30A-04FB735069FE%2F202209%2F44C5C1037925EC78.ttf;fontSize=16;" parent="1" target="hzi3qwqsZ8rUxCeRSiQz-13" edge="1">
                    <mxGeometry relative="1" as="geometry">
                        <mxPoint x="615" y="720" as="sourcePoint"/>
                        <Array as="points">
                            <mxPoint x="645" y="720"/>
                        </Array>
                    </mxGeometry>
                </mxCell>
                <mxCell id="hzi3qwqsZ8rUxCeRSiQz-15" value="&lt;h1&gt;自关联消息&lt;/h1&gt;&lt;p&gt;&lt;span style=&quot;text-indent: 26px; background-color: rgb(255, 255, 255); font-size: 16px;&quot;&gt;表示方法的自身调用以及一个对象内的一个方法调用另外一个方法。&lt;/span&gt;&lt;br&gt;&lt;/p&gt;" style="text;html=1;strokeColor=none;fillColor=none;spacing=5;spacingTop=-20;whiteSpace=wrap;overflow=hidden;rounded=0;shadow=0;fontFamily=阿里汉仪智能黑体;fontSource=https%3A%2F%2Fhellowebfonts.oss-cn-beijing.aliyuncs.com%2F698F3099-E62F-4C3B-B30A-04FB735069FE%2F202209%2F44C5C1037925EC78.ttf;fontSize=14;" parent="1" vertex="1">
                    <mxGeometry x="744" y="700" width="196" height="170" as="geometry"/>
                </mxCell>
                <mxCell id="hzi3qwqsZ8rUxCeRSiQz-16" value="" style="html=1;points=[];perimeter=orthogonalPerimeter;fontFamily=阿里汉仪智能黑体;fontSource=https%3A%2F%2Fhellowebfonts.oss-cn-beijing.aliyuncs.com%2F698F3099-E62F-4C3B-B30A-04FB735069FE%2F202209%2F44C5C1037925EC78.ttf;fontSize=16;" parent="1" vertex="1">
                    <mxGeometry x="610" y="520" width="10" height="80" as="geometry"/>
                </mxCell>
                <mxCell id="hzi3qwqsZ8rUxCeRSiQz-17" value="dispatch" style="html=1;verticalAlign=bottom;endArrow=open;entryX=0;entryY=0;rounded=0;fontFamily=阿里汉仪智能黑体;fontSource=https%3A%2F%2Fhellowebfonts.oss-cn-beijing.aliyuncs.com%2F698F3099-E62F-4C3B-B30A-04FB735069FE%2F202209%2F44C5C1037925EC78.ttf;fontSize=16;endFill=0;" parent="1" target="hzi3qwqsZ8rUxCeRSiQz-16" edge="1">
                    <mxGeometry relative="1" as="geometry">
                        <mxPoint x="540" y="520" as="sourcePoint"/>
                    </mxGeometry>
                </mxCell>
                <mxCell id="hzi3qwqsZ8rUxCeRSiQz-18" value="&lt;h1&gt;异步消息&lt;/h1&gt;&lt;span style=&quot;font-family: 宋体; text-indent: 26px; background-color: rgb(255, 255, 255); font-size: 16px;&quot;&gt;消息发送者通过消息把信号传递给消息的接收者，然后继续自己的活动，不等待接受者返回消息或者控制。异步消息的接收者和发送者是并发工作的。&lt;/span&gt;&lt;b style=&quot;color: rgb(18, 18, 18); font-size: medium;&quot;&gt;使用开放箭头。&lt;/b&gt;&lt;span style=&quot;font-family: 宋体; font-size: 13px; text-indent: 26px; background-color: rgb(255, 255, 255);&quot;&gt;&lt;br&gt;&lt;/span&gt;" style="text;html=1;strokeColor=none;fillColor=none;spacing=5;spacingTop=-20;whiteSpace=wrap;overflow=hidden;rounded=0;shadow=0;fontFamily=阿里汉仪智能黑体;fontSource=https%3A%2F%2Fhellowebfonts.oss-cn-beijing.aliyuncs.com%2F698F3099-E62F-4C3B-B30A-04FB735069FE%2F202209%2F44C5C1037925EC78.ttf;fontSize=14;" parent="1" vertex="1">
                    <mxGeometry x="744" y="480" width="196" height="200" as="geometry"/>
                </mxCell>
                <mxCell id="hzi3qwqsZ8rUxCeRSiQz-19" value="frame" style="shape=umlFrame;whiteSpace=wrap;html=1;fontFamily=阿里汉仪智能黑体;fontSource=https%3A%2F%2Fhellowebfonts.oss-cn-beijing.aliyuncs.com%2F698F3099-E62F-4C3B-B30A-04FB735069FE%2F202209%2F44C5C1037925EC78.ttf;fontSize=16;" parent="1" vertex="1">
                    <mxGeometry x="40" y="850" width="130" height="130" as="geometry"/>
                </mxCell>
                <mxCell id="hzi3qwqsZ8rUxCeRSiQz-20" value="&lt;h1&gt;交互框&lt;/h1&gt;&lt;p&gt;&lt;span style=&quot;color: rgb(22, 22, 22); font-family: &amp;quot;IBM Plex Sans&amp;quot;, &amp;quot;Helvetica Neue&amp;quot;, Arial, sans-serif; font-size: 16px; background-color: rgb(255, 255, 255);&quot;&gt;交互框架对图提供了上下文或边界，可以在该图中创建图元素（例如生命线或消息）以及观察行为。&lt;/span&gt;&lt;br&gt;&lt;/p&gt;" style="text;html=1;strokeColor=none;fillColor=none;spacing=5;spacingTop=-20;whiteSpace=wrap;overflow=hidden;rounded=0;shadow=0;fontFamily=阿里汉仪智能黑体;fontSource=https%3A%2F%2Fhellowebfonts.oss-cn-beijing.aliyuncs.com%2F698F3099-E62F-4C3B-B30A-04FB735069FE%2F202209%2F44C5C1037925EC78.ttf;fontSize=14;" parent="1" vertex="1">
                    <mxGeometry x="224" y="840" width="216" height="190" as="geometry"/>
                </mxCell>
                <mxCell id="hzi3qwqsZ8rUxCeRSiQz-21" value="" style="html=1;points=[];perimeter=orthogonalPerimeter;fontFamily=阿里汉仪智能黑体;fontSource=https%3A%2F%2Fhellowebfonts.oss-cn-beijing.aliyuncs.com%2F698F3099-E62F-4C3B-B30A-04FB735069FE%2F202209%2F44C5C1037925EC78.ttf;fontSize=16;" parent="1" vertex="1">
                    <mxGeometry x="610" y="920" width="10" height="80" as="geometry"/>
                </mxCell>
                <mxCell id="hzi3qwqsZ8rUxCeRSiQz-22" value="dispatch" style="html=1;verticalAlign=bottom;endArrow=open;entryX=0;entryY=0;rounded=0;fontFamily=阿里汉仪智能黑体;fontSource=https%3A%2F%2Fhellowebfonts.oss-cn-beijing.aliyuncs.com%2F698F3099-E62F-4C3B-B30A-04FB735069FE%2F202209%2F44C5C1037925EC78.ttf;fontSize=16;endFill=0;" parent="1" target="hzi3qwqsZ8rUxCeRSiQz-21" edge="1">
                    <mxGeometry relative="1" as="geometry">
                        <mxPoint x="540" y="920" as="sourcePoint"/>
                    </mxGeometry>
                </mxCell>
                <mxCell id="hzi3qwqsZ8rUxCeRSiQz-23" value="return" style="html=1;verticalAlign=bottom;endArrow=open;dashed=1;endSize=8;exitX=0;exitY=0.95;rounded=0;fontFamily=阿里汉仪智能黑体;fontSource=https%3A%2F%2Fhellowebfonts.oss-cn-beijing.aliyuncs.com%2F698F3099-E62F-4C3B-B30A-04FB735069FE%2F202209%2F44C5C1037925EC78.ttf;fontSize=16;" parent="1" source="hzi3qwqsZ8rUxCeRSiQz-21" edge="1">
                    <mxGeometry relative="1" as="geometry">
                        <mxPoint x="540" y="996" as="targetPoint"/>
                    </mxGeometry>
                </mxCell>
                <mxCell id="hzi3qwqsZ8rUxCeRSiQz-24" value="&lt;h1&gt;返回消息&lt;/h1&gt;&lt;p style=&quot;font-size: 16px;&quot;&gt;表示从过程调用到返回&lt;/p&gt;" style="text;html=1;strokeColor=none;fillColor=none;spacing=5;spacingTop=-20;whiteSpace=wrap;overflow=hidden;rounded=0;shadow=0;fontFamily=阿里汉仪智能黑体;fontSource=https%3A%2F%2Fhellowebfonts.oss-cn-beijing.aliyuncs.com%2F698F3099-E62F-4C3B-B30A-04FB735069FE%2F202209%2F44C5C1037925EC78.ttf;fontSize=14;" parent="1" vertex="1">
                    <mxGeometry x="744" y="880" width="196" height="120" as="geometry"/>
                </mxCell>
                <mxCell id="hzi3qwqsZ8rUxCeRSiQz-25" value="&lt;h1&gt;对象&lt;/h1&gt;&lt;span style=&quot;color: rgb(51, 51, 51); font-family: &amp;quot;Open Sans&amp;quot;, &amp;quot;Clear Sans&amp;quot;, &amp;quot;Helvetica Neue&amp;quot;, Helvetica, Arial, &amp;quot;Segoe UI Emoji&amp;quot;, sans-serif; font-size: 16px; orphans: 4; background-color: rgb(255, 255, 255);&quot;&gt;命名包括对象名和类名。当只显示类名时，表示它是匿名对象，也可以只显示对象名。&lt;/span&gt;" style="text;html=1;strokeColor=none;fillColor=none;spacing=5;spacingTop=-20;whiteSpace=wrap;overflow=hidden;rounded=0;shadow=0;fontFamily=阿里汉仪智能黑体;fontSource=https%3A%2F%2Fhellowebfonts.oss-cn-beijing.aliyuncs.com%2F698F3099-E62F-4C3B-B30A-04FB735069FE%2F202209%2F44C5C1037925EC78.ttf;fontSize=14;" parent="1" vertex="1">
                    <mxGeometry x="218" y="240" width="196" height="150" as="geometry"/>
                </mxCell>
                <mxCell id="ZUwHC73z-4Nq2O9BJIxA-3" value="" style="shape=umlDestroy;whiteSpace=wrap;html=1;strokeWidth=3;strokeColor=default;fontFamily=阿里汉仪智能黑体;fontSource=https%3A%2F%2Fhellowebfonts.oss-cn-beijing.aliyuncs.com%2F698F3099-E62F-4C3B-B30A-04FB735069FE%2F202209%2F44C5C1037925EC78.ttf;fontSize=13;fontColor=#FF6666;" parent="1" vertex="1">
                    <mxGeometry x="600" y="1050" width="30" height="30" as="geometry"/>
                </mxCell>
                <mxCell id="ZUwHC73z-4Nq2O9BJIxA-4" value="&lt;h1&gt;销毁消息&lt;/h1&gt;&lt;p style=&quot;font-size: 16px;&quot;&gt;&lt;span style=&quot;color: rgb(18, 18, 18); font-family: -apple-system, BlinkMacSystemFont, &amp;quot;Helvetica Neue&amp;quot;, &amp;quot;PingFang SC&amp;quot;, &amp;quot;Microsoft YaHei&amp;quot;, &amp;quot;Source Han Sans SC&amp;quot;, &amp;quot;Noto Sans CJK SC&amp;quot;, &amp;quot;WenQuanYi Micro Hei&amp;quot;, sans-serif; font-size: medium; background-color: rgb(255, 255, 255);&quot;&gt;当一个对象不被需要时,也可以将它从时序图中删除.通过添加一个'X'在生命线末端表示删除一个对象&lt;/span&gt;&lt;br&gt;&lt;/p&gt;" style="text;html=1;strokeColor=none;fillColor=none;spacing=5;spacingTop=-20;whiteSpace=wrap;overflow=hidden;rounded=0;shadow=0;fontFamily=阿里汉仪智能黑体;fontSource=https%3A%2F%2Fhellowebfonts.oss-cn-beijing.aliyuncs.com%2F698F3099-E62F-4C3B-B30A-04FB735069FE%2F202209%2F44C5C1037925EC78.ttf;fontSize=14;" parent="1" vertex="1">
                    <mxGeometry x="744" y="1030" width="196" height="140" as="geometry"/>
                </mxCell>
            </root>
        </mxGraphModel>
    </diagram>
    <diagram id="Jd4yAq45f68AjP6T6bO8" name="模板">
        <mxGraphModel dx="818" dy="607" grid="1" gridSize="10" guides="1" tooltips="1" connect="1" arrows="1" fold="1" page="1" pageScale="1" pageWidth="827" pageHeight="1169" math="0" shadow="0">
            <root>
                <mxCell id="0"/>
                <mxCell id="1" parent="0"/>
                <mxCell id="yYiC_2Uj4qajT9QHw-QN-1" value=":Object" style="shape=umlLifeline;perimeter=lifelinePerimeter;whiteSpace=wrap;html=1;container=1;collapsible=0;recursiveResize=0;outlineConnect=0;rounded=1;shadow=0;comic=0;labelBackgroundColor=none;strokeWidth=1;fontFamily=阿里汉仪智能黑体;fontSize=16;align=center;fontSource=https%3A%2F%2Fhellowebfonts.oss-cn-beijing.aliyuncs.com%2F698F3099-E62F-4C3B-B30A-04FB735069FE%2F202209%2F44C5C1037925EC78.ttf;" parent="1" vertex="1">
                    <mxGeometry x="160" y="110" width="100" height="580" as="geometry"/>
                </mxCell>
                <mxCell id="yYiC_2Uj4qajT9QHw-QN-2" value="" style="html=1;points=[];perimeter=orthogonalPerimeter;rounded=0;shadow=0;comic=0;labelBackgroundColor=none;strokeWidth=1;fontFamily=阿里汉仪智能黑体;fontSize=16;align=center;fontSource=https%3A%2F%2Fhellowebfonts.oss-cn-beijing.aliyuncs.com%2F698F3099-E62F-4C3B-B30A-04FB735069FE%2F202209%2F44C5C1037925EC78.ttf;" parent="yYiC_2Uj4qajT9QHw-QN-1" vertex="1">
                    <mxGeometry x="45" y="100" width="10" height="230" as="geometry"/>
                </mxCell>
                <mxCell id="yYiC_2Uj4qajT9QHw-QN-3" value=":Object" style="shape=umlLifeline;perimeter=lifelinePerimeter;whiteSpace=wrap;html=1;container=1;collapsible=0;recursiveResize=0;outlineConnect=0;rounded=1;shadow=0;comic=0;labelBackgroundColor=none;strokeWidth=1;fontFamily=阿里汉仪智能黑体;fontSize=16;align=center;fontSource=https%3A%2F%2Fhellowebfonts.oss-cn-beijing.aliyuncs.com%2F698F3099-E62F-4C3B-B30A-04FB735069FE%2F202209%2F44C5C1037925EC78.ttf;" parent="1" vertex="1">
                    <mxGeometry x="320" y="110" width="100" height="580" as="geometry"/>
                </mxCell>
                <mxCell id="yYiC_2Uj4qajT9QHw-QN-4" value="" style="html=1;points=[];perimeter=orthogonalPerimeter;rounded=0;shadow=0;comic=0;labelBackgroundColor=none;strokeWidth=1;fontFamily=阿里汉仪智能黑体;fontSize=16;align=center;fontSource=https%3A%2F%2Fhellowebfonts.oss-cn-beijing.aliyuncs.com%2F698F3099-E62F-4C3B-B30A-04FB735069FE%2F202209%2F44C5C1037925EC78.ttf;" parent="yYiC_2Uj4qajT9QHw-QN-3" vertex="1">
                    <mxGeometry x="45" y="120" width="10" height="200" as="geometry"/>
                </mxCell>
                <mxCell id="yYiC_2Uj4qajT9QHw-QN-5" value=":Object" style="shape=umlLifeline;perimeter=lifelinePerimeter;whiteSpace=wrap;html=1;container=1;collapsible=0;recursiveResize=0;outlineConnect=0;rounded=1;shadow=0;comic=0;labelBackgroundColor=none;strokeWidth=1;fontFamily=阿里汉仪智能黑体;fontSize=16;align=center;fontSource=https%3A%2F%2Fhellowebfonts.oss-cn-beijing.aliyuncs.com%2F698F3099-E62F-4C3B-B30A-04FB735069FE%2F202209%2F44C5C1037925EC78.ttf;" parent="1" vertex="1">
                    <mxGeometry x="460" y="110" width="100" height="580" as="geometry"/>
                </mxCell>
                <mxCell id="yYiC_2Uj4qajT9QHw-QN-6" value=":Object" style="shape=umlLifeline;perimeter=lifelinePerimeter;whiteSpace=wrap;html=1;container=1;collapsible=0;recursiveResize=0;outlineConnect=0;rounded=1;shadow=0;comic=0;labelBackgroundColor=none;strokeWidth=1;fontFamily=阿里汉仪智能黑体;fontSize=16;align=center;fontSource=https%3A%2F%2Fhellowebfonts.oss-cn-beijing.aliyuncs.com%2F698F3099-E62F-4C3B-B30A-04FB735069FE%2F202209%2F44C5C1037925EC78.ttf;" parent="1" vertex="1">
                    <mxGeometry x="600" y="110" width="100" height="580" as="geometry"/>
                </mxCell>
                <mxCell id="yYiC_2Uj4qajT9QHw-QN-7" value=":Object" style="shape=umlLifeline;perimeter=lifelinePerimeter;whiteSpace=wrap;html=1;container=1;collapsible=0;recursiveResize=0;outlineConnect=0;rounded=1;shadow=0;comic=0;labelBackgroundColor=none;strokeWidth=1;fontFamily=阿里汉仪智能黑体;fontSize=16;align=center;fontSource=https%3A%2F%2Fhellowebfonts.oss-cn-beijing.aliyuncs.com%2F698F3099-E62F-4C3B-B30A-04FB735069FE%2F202209%2F44C5C1037925EC78.ttf;" parent="1" vertex="1">
                    <mxGeometry x="740" y="110" width="100" height="580" as="geometry"/>
                </mxCell>
                <mxCell id="yYiC_2Uj4qajT9QHw-QN-8" value=":Object" style="shape=umlLifeline;perimeter=lifelinePerimeter;whiteSpace=wrap;html=1;container=1;collapsible=0;recursiveResize=0;outlineConnect=0;rounded=1;shadow=0;comic=0;labelBackgroundColor=none;strokeWidth=1;fontFamily=阿里汉仪智能黑体;fontSize=16;align=center;fontSource=https%3A%2F%2Fhellowebfonts.oss-cn-beijing.aliyuncs.com%2F698F3099-E62F-4C3B-B30A-04FB735069FE%2F202209%2F44C5C1037925EC78.ttf;" parent="1" vertex="1">
                    <mxGeometry x="880" y="110" width="100" height="580" as="geometry"/>
                </mxCell>
                <mxCell id="yYiC_2Uj4qajT9QHw-QN-9" value=":Object" style="shape=umlLifeline;perimeter=lifelinePerimeter;whiteSpace=wrap;html=1;container=1;collapsible=0;recursiveResize=0;outlineConnect=0;rounded=1;shadow=0;comic=0;labelBackgroundColor=none;strokeWidth=1;fontFamily=阿里汉仪智能黑体;fontSize=16;align=center;fontSource=https%3A%2F%2Fhellowebfonts.oss-cn-beijing.aliyuncs.com%2F698F3099-E62F-4C3B-B30A-04FB735069FE%2F202209%2F44C5C1037925EC78.ttf;" parent="1" vertex="1">
                    <mxGeometry x="20" y="110" width="100" height="580" as="geometry"/>
                </mxCell>
                <mxCell id="yYiC_2Uj4qajT9QHw-QN-10" value="" style="html=1;points=[];perimeter=orthogonalPerimeter;rounded=0;shadow=0;comic=0;labelBackgroundColor=none;strokeWidth=1;fontFamily=阿里汉仪智能黑体;fontSize=16;align=center;fontSource=https%3A%2F%2Fhellowebfonts.oss-cn-beijing.aliyuncs.com%2F698F3099-E62F-4C3B-B30A-04FB735069FE%2F202209%2F44C5C1037925EC78.ttf;" parent="yYiC_2Uj4qajT9QHw-QN-9" vertex="1">
                    <mxGeometry x="45" y="100" width="10" height="440" as="geometry"/>
                </mxCell>
                <mxCell id="yYiC_2Uj4qajT9QHw-QN-11" value="" style="html=1;points=[];perimeter=orthogonalPerimeter;rounded=0;shadow=0;comic=0;labelBackgroundColor=none;strokeWidth=1;fontFamily=阿里汉仪智能黑体;fontSize=16;align=center;fontSource=https%3A%2F%2Fhellowebfonts.oss-cn-beijing.aliyuncs.com%2F698F3099-E62F-4C3B-B30A-04FB735069FE%2F202209%2F44C5C1037925EC78.ttf;" parent="1" vertex="1">
                    <mxGeometry x="505" y="250" width="10" height="180" as="geometry"/>
                </mxCell>
                <mxCell id="yYiC_2Uj4qajT9QHw-QN-12" value="dispatch" style="html=1;verticalAlign=bottom;endArrow=block;labelBackgroundColor=none;fontFamily=阿里汉仪智能黑体;fontSize=16;edgeStyle=elbowEdgeStyle;elbow=vertical;rounded=0;fontSource=https%3A%2F%2Fhellowebfonts.oss-cn-beijing.aliyuncs.com%2F698F3099-E62F-4C3B-B30A-04FB735069FE%2F202209%2F44C5C1037925EC78.ttf;" parent="1" source="yYiC_2Uj4qajT9QHw-QN-4" target="yYiC_2Uj4qajT9QHw-QN-11" edge="1">
                    <mxGeometry relative="1" as="geometry">
                        <mxPoint x="430" y="250" as="sourcePoint"/>
                        <Array as="points">
                            <mxPoint x="380" y="250"/>
                        </Array>
                    </mxGeometry>
                </mxCell>
                <mxCell id="yYiC_2Uj4qajT9QHw-QN-13" value="" style="html=1;points=[];perimeter=orthogonalPerimeter;rounded=0;shadow=0;comic=0;labelBackgroundColor=none;strokeWidth=1;fontFamily=阿里汉仪智能黑体;fontSize=16;align=center;fontSource=https%3A%2F%2Fhellowebfonts.oss-cn-beijing.aliyuncs.com%2F698F3099-E62F-4C3B-B30A-04FB735069FE%2F202209%2F44C5C1037925EC78.ttf;" parent="1" vertex="1">
                    <mxGeometry x="645" y="260" width="10" height="40" as="geometry"/>
                </mxCell>
                <mxCell id="yYiC_2Uj4qajT9QHw-QN-14" value="dispatch" style="html=1;verticalAlign=bottom;endArrow=block;entryX=0;entryY=0;labelBackgroundColor=none;fontFamily=阿里汉仪智能黑体;fontSize=16;edgeStyle=elbowEdgeStyle;elbow=vertical;rounded=0;fontSource=https%3A%2F%2Fhellowebfonts.oss-cn-beijing.aliyuncs.com%2F698F3099-E62F-4C3B-B30A-04FB735069FE%2F202209%2F44C5C1037925EC78.ttf;" parent="1" source="yYiC_2Uj4qajT9QHw-QN-11" target="yYiC_2Uj4qajT9QHw-QN-13" edge="1">
                    <mxGeometry relative="1" as="geometry">
                        <mxPoint x="570" y="260" as="sourcePoint"/>
                    </mxGeometry>
                </mxCell>
                <mxCell id="yYiC_2Uj4qajT9QHw-QN-15" value="return" style="html=1;verticalAlign=bottom;endArrow=open;dashed=1;endSize=8;labelBackgroundColor=none;fontFamily=阿里汉仪智能黑体;fontSize=16;edgeStyle=elbowEdgeStyle;elbow=vertical;rounded=0;fontSource=https%3A%2F%2Fhellowebfonts.oss-cn-beijing.aliyuncs.com%2F698F3099-E62F-4C3B-B30A-04FB735069FE%2F202209%2F44C5C1037925EC78.ttf;" parent="1" source="yYiC_2Uj4qajT9QHw-QN-13" target="yYiC_2Uj4qajT9QHw-QN-11" edge="1">
                    <mxGeometry relative="1" as="geometry">
                        <mxPoint x="570" y="336" as="targetPoint"/>
                        <Array as="points">
                            <mxPoint x="590" y="290"/>
                            <mxPoint x="620" y="290"/>
                        </Array>
                    </mxGeometry>
                </mxCell>
                <mxCell id="yYiC_2Uj4qajT9QHw-QN-16" value="" style="html=1;points=[];perimeter=orthogonalPerimeter;rounded=0;shadow=0;comic=0;labelBackgroundColor=none;strokeWidth=1;fontFamily=阿里汉仪智能黑体;fontSize=16;align=center;fontSource=https%3A%2F%2Fhellowebfonts.oss-cn-beijing.aliyuncs.com%2F698F3099-E62F-4C3B-B30A-04FB735069FE%2F202209%2F44C5C1037925EC78.ttf;" parent="1" vertex="1">
                    <mxGeometry x="505" y="470" width="10" height="140" as="geometry"/>
                </mxCell>
                <mxCell id="yYiC_2Uj4qajT9QHw-QN-17" value="dispatch" style="html=1;verticalAlign=bottom;endArrow=block;entryX=0;entryY=0;labelBackgroundColor=none;fontFamily=阿里汉仪智能黑体;fontSize=16;rounded=0;fontSource=https%3A%2F%2Fhellowebfonts.oss-cn-beijing.aliyuncs.com%2F698F3099-E62F-4C3B-B30A-04FB735069FE%2F202209%2F44C5C1037925EC78.ttf;" parent="1" source="yYiC_2Uj4qajT9QHw-QN-10" target="yYiC_2Uj4qajT9QHw-QN-16" edge="1">
                    <mxGeometry relative="1" as="geometry">
                        <mxPoint x="430" y="450" as="sourcePoint"/>
                    </mxGeometry>
                </mxCell>
                <mxCell id="yYiC_2Uj4qajT9QHw-QN-18" value="" style="html=1;points=[];perimeter=orthogonalPerimeter;rounded=0;shadow=0;comic=0;labelBackgroundColor=none;strokeColor=#000000;strokeWidth=1;fillColor=#FFFFFF;fontFamily=阿里汉仪智能黑体;fontSize=16;fontColor=#000000;align=center;fontSource=https%3A%2F%2Fhellowebfonts.oss-cn-beijing.aliyuncs.com%2F698F3099-E62F-4C3B-B30A-04FB735069FE%2F202209%2F44C5C1037925EC78.ttf;" parent="1" vertex="1">
                    <mxGeometry x="925" y="490" width="10" height="30" as="geometry"/>
                </mxCell>
                <mxCell id="yYiC_2Uj4qajT9QHw-QN-19" value="dispatch" style="html=1;verticalAlign=bottom;endArrow=block;entryX=0;entryY=0;labelBackgroundColor=none;fontFamily=阿里汉仪智能黑体;fontSize=16;rounded=0;fontSource=https%3A%2F%2Fhellowebfonts.oss-cn-beijing.aliyuncs.com%2F698F3099-E62F-4C3B-B30A-04FB735069FE%2F202209%2F44C5C1037925EC78.ttf;" parent="1" source="yYiC_2Uj4qajT9QHw-QN-16" target="yYiC_2Uj4qajT9QHw-QN-18" edge="1">
                    <mxGeometry relative="1" as="geometry">
                        <mxPoint x="850" y="370" as="sourcePoint"/>
                    </mxGeometry>
                </mxCell>
                <mxCell id="yYiC_2Uj4qajT9QHw-QN-20" value="return" style="html=1;verticalAlign=bottom;endArrow=open;dashed=1;endSize=8;exitX=0;exitY=0.95;labelBackgroundColor=none;fontFamily=阿里汉仪智能黑体;fontSize=16;rounded=0;fontSource=https%3A%2F%2Fhellowebfonts.oss-cn-beijing.aliyuncs.com%2F698F3099-E62F-4C3B-B30A-04FB735069FE%2F202209%2F44C5C1037925EC78.ttf;" parent="1" source="yYiC_2Uj4qajT9QHw-QN-18" target="yYiC_2Uj4qajT9QHw-QN-16" edge="1">
                    <mxGeometry relative="1" as="geometry">
                        <mxPoint x="850" y="446" as="targetPoint"/>
                    </mxGeometry>
                </mxCell>
                <mxCell id="yYiC_2Uj4qajT9QHw-QN-21" value="" style="html=1;points=[];perimeter=orthogonalPerimeter;rounded=0;shadow=0;comic=0;labelBackgroundColor=none;strokeWidth=1;fontFamily=阿里汉仪智能黑体;fontSize=16;align=center;fontSource=https%3A%2F%2Fhellowebfonts.oss-cn-beijing.aliyuncs.com%2F698F3099-E62F-4C3B-B30A-04FB735069FE%2F202209%2F44C5C1037925EC78.ttf;" parent="1" vertex="1">
                    <mxGeometry x="790" y="580" width="10" height="60" as="geometry"/>
                </mxCell>
                <mxCell id="yYiC_2Uj4qajT9QHw-QN-22" value="dispatch" style="html=1;verticalAlign=bottom;endArrow=block;entryX=0;entryY=0;labelBackgroundColor=none;fontFamily=阿里汉仪智能黑体;fontSize=16;edgeStyle=elbowEdgeStyle;elbow=vertical;rounded=0;fontSource=https%3A%2F%2Fhellowebfonts.oss-cn-beijing.aliyuncs.com%2F698F3099-E62F-4C3B-B30A-04FB735069FE%2F202209%2F44C5C1037925EC78.ttf;" parent="1" source="yYiC_2Uj4qajT9QHw-QN-29" target="yYiC_2Uj4qajT9QHw-QN-21" edge="1">
                    <mxGeometry relative="1" as="geometry">
                        <mxPoint x="720" y="580" as="sourcePoint"/>
                    </mxGeometry>
                </mxCell>
                <mxCell id="yYiC_2Uj4qajT9QHw-QN-23" value="return" style="html=1;verticalAlign=bottom;endArrow=open;dashed=1;endSize=8;labelBackgroundColor=none;fontFamily=阿里汉仪智能黑体;fontSize=16;edgeStyle=elbowEdgeStyle;elbow=vertical;rounded=0;fontSource=https%3A%2F%2Fhellowebfonts.oss-cn-beijing.aliyuncs.com%2F698F3099-E62F-4C3B-B30A-04FB735069FE%2F202209%2F44C5C1037925EC78.ttf;" parent="1" source="yYiC_2Uj4qajT9QHw-QN-21" target="yYiC_2Uj4qajT9QHw-QN-10" edge="1">
                    <mxGeometry relative="1" as="geometry">
                        <mxPoint x="720" y="656" as="targetPoint"/>
                        <Array as="points">
                            <mxPoint x="490" y="630"/>
                        </Array>
                    </mxGeometry>
                </mxCell>
                <mxCell id="yYiC_2Uj4qajT9QHw-QN-24" value="dispatch" style="html=1;verticalAlign=bottom;endArrow=block;entryX=0;entryY=0;labelBackgroundColor=none;fontFamily=阿里汉仪智能黑体;fontSize=16;edgeStyle=elbowEdgeStyle;elbow=vertical;rounded=0;fontSource=https%3A%2F%2Fhellowebfonts.oss-cn-beijing.aliyuncs.com%2F698F3099-E62F-4C3B-B30A-04FB735069FE%2F202209%2F44C5C1037925EC78.ttf;" parent="1" source="yYiC_2Uj4qajT9QHw-QN-10" target="yYiC_2Uj4qajT9QHw-QN-2" edge="1">
                    <mxGeometry relative="1" as="geometry">
                        <mxPoint x="140" y="220" as="sourcePoint"/>
                    </mxGeometry>
                </mxCell>
                <mxCell id="yYiC_2Uj4qajT9QHw-QN-25" value="dispatch" style="html=1;verticalAlign=bottom;endArrow=block;entryX=0;entryY=0;labelBackgroundColor=none;fontFamily=阿里汉仪智能黑体;fontSize=16;edgeStyle=elbowEdgeStyle;elbow=vertical;rounded=0;fontSource=https%3A%2F%2Fhellowebfonts.oss-cn-beijing.aliyuncs.com%2F698F3099-E62F-4C3B-B30A-04FB735069FE%2F202209%2F44C5C1037925EC78.ttf;" parent="1" source="yYiC_2Uj4qajT9QHw-QN-2" target="yYiC_2Uj4qajT9QHw-QN-4" edge="1">
                    <mxGeometry relative="1" as="geometry">
                        <mxPoint x="290" y="230" as="sourcePoint"/>
                    </mxGeometry>
                </mxCell>
                <mxCell id="yYiC_2Uj4qajT9QHw-QN-26" value="" style="html=1;points=[];perimeter=orthogonalPerimeter;rounded=0;shadow=0;comic=0;labelBackgroundColor=none;strokeWidth=1;fontFamily=阿里汉仪智能黑体;fontSize=16;align=center;fontSource=https%3A%2F%2Fhellowebfonts.oss-cn-beijing.aliyuncs.com%2F698F3099-E62F-4C3B-B30A-04FB735069FE%2F202209%2F44C5C1037925EC78.ttf;" parent="1" vertex="1">
                    <mxGeometry x="510" y="330" width="10" height="70" as="geometry"/>
                </mxCell>
                <mxCell id="yYiC_2Uj4qajT9QHw-QN-27" value="dispatch" style="html=1;verticalAlign=bottom;endArrow=block;labelBackgroundColor=none;fontFamily=阿里汉仪智能黑体;fontSize=16;elbow=vertical;edgeStyle=orthogonalEdgeStyle;curved=1;entryX=1;entryY=0.286;entryPerimeter=0;exitX=1.038;exitY=0.345;exitPerimeter=0;rounded=0;fontSource=https%3A%2F%2Fhellowebfonts.oss-cn-beijing.aliyuncs.com%2F698F3099-E62F-4C3B-B30A-04FB735069FE%2F202209%2F44C5C1037925EC78.ttf;" parent="1" source="yYiC_2Uj4qajT9QHw-QN-11" target="yYiC_2Uj4qajT9QHw-QN-26" edge="1">
                    <mxGeometry relative="1" as="geometry">
                        <mxPoint x="385" y="260" as="sourcePoint"/>
                        <mxPoint x="515" y="260" as="targetPoint"/>
                        <Array as="points">
                            <mxPoint x="570" y="312"/>
                            <mxPoint x="570" y="350"/>
                        </Array>
                    </mxGeometry>
                </mxCell>
                <mxCell id="yYiC_2Uj4qajT9QHw-QN-28" value="dispatch" style="html=1;verticalAlign=bottom;endArrow=block;labelBackgroundColor=none;fontFamily=阿里汉仪智能黑体;fontSize=16;elbow=vertical;edgeStyle=orthogonalEdgeStyle;curved=1;exitX=1.066;exitY=0.713;exitPerimeter=0;rounded=0;fontSource=https%3A%2F%2Fhellowebfonts.oss-cn-beijing.aliyuncs.com%2F698F3099-E62F-4C3B-B30A-04FB735069FE%2F202209%2F44C5C1037925EC78.ttf;" parent="1" source="yYiC_2Uj4qajT9QHw-QN-26" edge="1">
                    <mxGeometry relative="1" as="geometry">
                        <mxPoint x="530.3333333333333" y="380" as="sourcePoint"/>
                        <mxPoint x="515" y="419" as="targetPoint"/>
                        <Array as="points">
                            <mxPoint x="570" y="380"/>
                            <mxPoint x="570" y="419"/>
                        </Array>
                    </mxGeometry>
                </mxCell>
                <mxCell id="yYiC_2Uj4qajT9QHw-QN-29" value="" style="html=1;points=[];perimeter=orthogonalPerimeter;rounded=0;shadow=0;comic=0;labelBackgroundColor=none;strokeWidth=1;fontFamily=阿里汉仪智能黑体;fontSize=16;align=center;fontSource=https%3A%2F%2Fhellowebfonts.oss-cn-beijing.aliyuncs.com%2F698F3099-E62F-4C3B-B30A-04FB735069FE%2F202209%2F44C5C1037925EC78.ttf;" parent="1" vertex="1">
                    <mxGeometry x="510" y="550" width="10" height="40" as="geometry"/>
                </mxCell>
                <mxCell id="yYiC_2Uj4qajT9QHw-QN-30" value="dispatch" style="html=1;verticalAlign=bottom;endArrow=block;labelBackgroundColor=none;fontFamily=阿里汉仪智能黑体;fontSize=16;elbow=vertical;edgeStyle=orthogonalEdgeStyle;curved=1;entryX=1;entryY=0.286;entryPerimeter=0;exitX=1.038;exitY=0.345;exitPerimeter=0;rounded=0;fontSource=https%3A%2F%2Fhellowebfonts.oss-cn-beijing.aliyuncs.com%2F698F3099-E62F-4C3B-B30A-04FB735069FE%2F202209%2F44C5C1037925EC78.ttf;" parent="1" edge="1">
                    <mxGeometry relative="1" as="geometry">
                        <mxPoint x="515.3333333333335" y="531" as="sourcePoint"/>
                        <mxPoint x="520.3333333333335" y="569.3333333333334" as="targetPoint"/>
                        <Array as="points">
                            <mxPoint x="570" y="531"/>
                            <mxPoint x="570" y="569"/>
                        </Array>
                    </mxGeometry>
                </mxCell>
                <mxCell id="yYiC_2Uj4qajT9QHw-QN-31" value="Note" style="shape=note;whiteSpace=wrap;html=1;size=14;verticalAlign=top;align=left;spacingTop=-6;rounded=0;shadow=0;comic=0;labelBackgroundColor=none;strokeWidth=1;fontFamily=阿里汉仪智能黑体;fontSize=16;fontSource=https%3A%2F%2Fhellowebfonts.oss-cn-beijing.aliyuncs.com%2F698F3099-E62F-4C3B-B30A-04FB735069FE%2F202209%2F44C5C1037925EC78.ttf;" parent="1" vertex="1">
                    <mxGeometry x="20" y="60" width="100" height="35" as="geometry"/>
                </mxCell>
                <mxCell id="yYiC_2Uj4qajT9QHw-QN-32" value="Note" style="shape=note;whiteSpace=wrap;html=1;size=14;verticalAlign=top;align=left;spacingTop=-6;rounded=0;shadow=0;comic=0;labelBackgroundColor=none;strokeWidth=1;fontFamily=阿里汉仪智能黑体;fontSize=16;fontSource=https%3A%2F%2Fhellowebfonts.oss-cn-beijing.aliyuncs.com%2F698F3099-E62F-4C3B-B30A-04FB735069FE%2F202209%2F44C5C1037925EC78.ttf;" parent="1" vertex="1">
                    <mxGeometry x="160" y="60" width="100" height="35" as="geometry"/>
                </mxCell>
                <mxCell id="yYiC_2Uj4qajT9QHw-QN-33" value="Note" style="shape=note;whiteSpace=wrap;html=1;size=14;verticalAlign=top;align=left;spacingTop=-6;rounded=0;shadow=0;comic=0;labelBackgroundColor=none;strokeWidth=1;fontFamily=阿里汉仪智能黑体;fontSize=16;fontSource=https%3A%2F%2Fhellowebfonts.oss-cn-beijing.aliyuncs.com%2F698F3099-E62F-4C3B-B30A-04FB735069FE%2F202209%2F44C5C1037925EC78.ttf;" parent="1" vertex="1">
                    <mxGeometry x="320" y="60" width="100" height="35" as="geometry"/>
                </mxCell>
                <mxCell id="yYiC_2Uj4qajT9QHw-QN-34" value="Note" style="shape=note;whiteSpace=wrap;html=1;size=14;verticalAlign=top;align=left;spacingTop=-6;rounded=0;shadow=0;comic=0;labelBackgroundColor=none;strokeWidth=1;fontFamily=阿里汉仪智能黑体;fontSize=16;fontSource=https%3A%2F%2Fhellowebfonts.oss-cn-beijing.aliyuncs.com%2F698F3099-E62F-4C3B-B30A-04FB735069FE%2F202209%2F44C5C1037925EC78.ttf;" parent="1" vertex="1">
                    <mxGeometry x="460" y="60" width="100" height="35" as="geometry"/>
                </mxCell>
                <mxCell id="yYiC_2Uj4qajT9QHw-QN-35" value="Note" style="shape=note;whiteSpace=wrap;html=1;size=14;verticalAlign=top;align=left;spacingTop=-6;rounded=0;shadow=0;comic=0;labelBackgroundColor=none;strokeWidth=1;fontFamily=阿里汉仪智能黑体;fontSize=16;fontSource=https%3A%2F%2Fhellowebfonts.oss-cn-beijing.aliyuncs.com%2F698F3099-E62F-4C3B-B30A-04FB735069FE%2F202209%2F44C5C1037925EC78.ttf;" parent="1" vertex="1">
                    <mxGeometry x="600" y="60" width="100" height="35" as="geometry"/>
                </mxCell>
                <mxCell id="yYiC_2Uj4qajT9QHw-QN-36" value="Note" style="shape=note;whiteSpace=wrap;html=1;size=14;verticalAlign=top;align=left;spacingTop=-6;rounded=0;shadow=0;comic=0;labelBackgroundColor=none;strokeWidth=1;fontFamily=阿里汉仪智能黑体;fontSize=16;fontSource=https%3A%2F%2Fhellowebfonts.oss-cn-beijing.aliyuncs.com%2F698F3099-E62F-4C3B-B30A-04FB735069FE%2F202209%2F44C5C1037925EC78.ttf;" parent="1" vertex="1">
                    <mxGeometry x="740" y="60" width="100" height="35" as="geometry"/>
                </mxCell>
                <mxCell id="yYiC_2Uj4qajT9QHw-QN-37" value="Note" style="shape=note;whiteSpace=wrap;html=1;size=14;verticalAlign=top;align=left;spacingTop=-6;rounded=0;shadow=0;comic=0;labelBackgroundColor=none;strokeWidth=1;fontFamily=阿里汉仪智能黑体;fontSize=16;fontSource=https%3A%2F%2Fhellowebfonts.oss-cn-beijing.aliyuncs.com%2F698F3099-E62F-4C3B-B30A-04FB735069FE%2F202209%2F44C5C1037925EC78.ttf;" parent="1" vertex="1">
                    <mxGeometry x="880" y="60" width="100" height="35" as="geometry"/>
                </mxCell>
            </root>
        </mxGraphModel>
    </diagram>
    <diagram id="BxJ949Dx3Box3_HdU_Wn" name="示例">
        <mxGraphModel dx="818" dy="1776" grid="1" gridSize="10" guides="1" tooltips="1" connect="1" arrows="1" fold="1" page="1" pageScale="1" pageWidth="827" pageHeight="1169" math="0" shadow="0">
            <root>
                <mxCell id="0"/>
                <mxCell id="1" parent="0"/>
                <mxCell id="VxFzKKqE0XxtknugRdx4-1" value="需求" style="shape=umlLifeline;perimeter=lifelinePerimeter;whiteSpace=wrap;html=1;container=1;collapsible=0;recursiveResize=0;outlineConnect=0;" vertex="1" parent="1">
                    <mxGeometry x="180" y="80" width="100" height="1000" as="geometry"/>
                </mxCell>
                <mxCell id="VxFzKKqE0XxtknugRdx4-2" value="" style="html=1;points=[];perimeter=orthogonalPerimeter;" vertex="1" parent="VxFzKKqE0XxtknugRdx4-1">
                    <mxGeometry x="45" y="110" width="10" height="40" as="geometry"/>
                </mxCell>
                <mxCell id="VxFzKKqE0XxtknugRdx4-3" value="确认文案" style="edgeStyle=orthogonalEdgeStyle;html=1;align=left;spacingLeft=2;endArrow=block;rounded=0;entryX=1;entryY=0;" edge="1" parent="VxFzKKqE0XxtknugRdx4-1" target="VxFzKKqE0XxtknugRdx4-2">
                    <mxGeometry relative="1" as="geometry">
                        <mxPoint x="50" y="90" as="sourcePoint"/>
                        <Array as="points">
                            <mxPoint x="75" y="90"/>
                        </Array>
                    </mxGeometry>
                </mxCell>
                <mxCell id="VxFzKKqE0XxtknugRdx4-4" value="" style="html=1;points=[];perimeter=orthogonalPerimeter;" vertex="1" parent="VxFzKKqE0XxtknugRdx4-1">
                    <mxGeometry x="45" y="840" width="10" height="40" as="geometry"/>
                </mxCell>
                <mxCell id="VxFzKKqE0XxtknugRdx4-5" value="PO" style="shape=umlActor;verticalLabelPosition=bottom;labelBackgroundColor=#ffffff;verticalAlign=top;html=1;" vertex="1" parent="1">
                    <mxGeometry x="215" y="-10" width="30" height="60" as="geometry"/>
                </mxCell>
                <mxCell id="VxFzKKqE0XxtknugRdx4-6" value="开发" style="shape=umlLifeline;perimeter=lifelinePerimeter;whiteSpace=wrap;html=1;container=1;collapsible=0;recursiveResize=0;outlineConnect=0;" vertex="1" parent="1">
                    <mxGeometry x="430" y="80" width="100" height="1000" as="geometry"/>
                </mxCell>
                <mxCell id="VxFzKKqE0XxtknugRdx4-7" value="" style="html=1;points=[];perimeter=orthogonalPerimeter;" vertex="1" parent="VxFzKKqE0XxtknugRdx4-6">
                    <mxGeometry x="45" y="130" width="10" height="40" as="geometry"/>
                </mxCell>
                <mxCell id="VxFzKKqE0XxtknugRdx4-8" value="提取词条" style="edgeStyle=orthogonalEdgeStyle;html=1;align=left;spacingLeft=2;endArrow=block;rounded=0;entryX=1;entryY=0;" edge="1" parent="VxFzKKqE0XxtknugRdx4-6" target="VxFzKKqE0XxtknugRdx4-7">
                    <mxGeometry relative="1" as="geometry">
                        <mxPoint x="50" y="110" as="sourcePoint"/>
                        <Array as="points">
                            <mxPoint x="75" y="110"/>
                        </Array>
                    </mxGeometry>
                </mxCell>
                <mxCell id="VxFzKKqE0XxtknugRdx4-9" value="" style="html=1;points=[];perimeter=orthogonalPerimeter;" vertex="1" parent="VxFzKKqE0XxtknugRdx4-6">
                    <mxGeometry x="45" y="190" width="10" height="80" as="geometry"/>
                </mxCell>
                <mxCell id="VxFzKKqE0XxtknugRdx4-10" value="" style="html=1;points=[];perimeter=orthogonalPerimeter;" vertex="1" parent="VxFzKKqE0XxtknugRdx4-6">
                    <mxGeometry x="45" y="430" width="10" height="40" as="geometry"/>
                </mxCell>
                <mxCell id="VxFzKKqE0XxtknugRdx4-11" value="" style="html=1;points=[];perimeter=orthogonalPerimeter;" vertex="1" parent="VxFzKKqE0XxtknugRdx4-6">
                    <mxGeometry x="45" y="520" width="10" height="40" as="geometry"/>
                </mxCell>
                <mxCell id="VxFzKKqE0XxtknugRdx4-12" value="合入代码" style="edgeStyle=orthogonalEdgeStyle;html=1;align=left;spacingLeft=2;endArrow=block;rounded=0;entryX=1;entryY=0;" edge="1" parent="VxFzKKqE0XxtknugRdx4-6" target="VxFzKKqE0XxtknugRdx4-11">
                    <mxGeometry relative="1" as="geometry">
                        <mxPoint x="50" y="500" as="sourcePoint"/>
                        <Array as="points">
                            <mxPoint x="75" y="500"/>
                        </Array>
                    </mxGeometry>
                </mxCell>
                <mxCell id="VxFzKKqE0XxtknugRdx4-13" value="" style="html=1;points=[];perimeter=orthogonalPerimeter;" vertex="1" parent="VxFzKKqE0XxtknugRdx4-6">
                    <mxGeometry x="45" y="650" width="10" height="40" as="geometry"/>
                </mxCell>
                <mxCell id="VxFzKKqE0XxtknugRdx4-14" value="" style="html=1;points=[];perimeter=orthogonalPerimeter;" vertex="1" parent="VxFzKKqE0XxtknugRdx4-6">
                    <mxGeometry x="45" y="740" width="10" height="40" as="geometry"/>
                </mxCell>
                <mxCell id="VxFzKKqE0XxtknugRdx4-15" value="合入代码" style="edgeStyle=orthogonalEdgeStyle;html=1;align=left;spacingLeft=2;endArrow=block;rounded=0;entryX=1;entryY=0;" edge="1" parent="VxFzKKqE0XxtknugRdx4-6" target="VxFzKKqE0XxtknugRdx4-14">
                    <mxGeometry relative="1" as="geometry">
                        <mxPoint x="50" y="720" as="sourcePoint"/>
                        <Array as="points">
                            <mxPoint x="75" y="720"/>
                        </Array>
                    </mxGeometry>
                </mxCell>
                <mxCell id="VxFzKKqE0XxtknugRdx4-16" value="" style="html=1;points=[];perimeter=orthogonalPerimeter;" vertex="1" parent="VxFzKKqE0XxtknugRdx4-6">
                    <mxGeometry x="45" y="810" width="10" height="40" as="geometry"/>
                </mxCell>
                <mxCell id="VxFzKKqE0XxtknugRdx4-17" value="Dev" style="shape=umlActor;verticalLabelPosition=bottom;labelBackgroundColor=#ffffff;verticalAlign=top;html=1;" vertex="1" parent="1">
                    <mxGeometry x="465" y="-10" width="30" height="60" as="geometry"/>
                </mxCell>
                <mxCell id="VxFzKKqE0XxtknugRdx4-18" value="Xanadu" style="shape=umlLifeline;perimeter=lifelinePerimeter;whiteSpace=wrap;html=1;container=1;collapsible=0;recursiveResize=0;outlineConnect=0;" vertex="1" parent="1">
                    <mxGeometry x="670" y="80" width="100" height="1000" as="geometry"/>
                </mxCell>
                <mxCell id="VxFzKKqE0XxtknugRdx4-19" value="" style="html=1;points=[];perimeter=orthogonalPerimeter;" vertex="1" parent="VxFzKKqE0XxtknugRdx4-18">
                    <mxGeometry x="45" y="140" width="10" height="370" as="geometry"/>
                </mxCell>
                <mxCell id="VxFzKKqE0XxtknugRdx4-20" value="" style="html=1;points=[];perimeter=orthogonalPerimeter;" vertex="1" parent="VxFzKKqE0XxtknugRdx4-18">
                    <mxGeometry x="45" y="630" width="10" height="40" as="geometry"/>
                </mxCell>
                <mxCell id="VxFzKKqE0XxtknugRdx4-21" value="翻译组" style="shape=umlLifeline;perimeter=lifelinePerimeter;whiteSpace=wrap;html=1;container=1;collapsible=0;recursiveResize=0;outlineConnect=0;" vertex="1" parent="1">
                    <mxGeometry x="890" y="80" width="100" height="1000" as="geometry"/>
                </mxCell>
                <mxCell id="VxFzKKqE0XxtknugRdx4-22" value="" style="html=1;points=[];perimeter=orthogonalPerimeter;" vertex="1" parent="VxFzKKqE0XxtknugRdx4-21">
                    <mxGeometry x="45" y="230" width="10" height="80" as="geometry"/>
                </mxCell>
                <mxCell id="VxFzKKqE0XxtknugRdx4-23" value="" style="html=1;points=[];perimeter=orthogonalPerimeter;" vertex="1" parent="VxFzKKqE0XxtknugRdx4-21">
                    <mxGeometry x="45" y="370" width="10" height="40" as="geometry"/>
                </mxCell>
                <mxCell id="VxFzKKqE0XxtknugRdx4-24" value="翻译" style="edgeStyle=orthogonalEdgeStyle;html=1;align=left;spacingLeft=2;endArrow=block;rounded=0;entryX=1;entryY=0;" edge="1" parent="VxFzKKqE0XxtknugRdx4-21" target="VxFzKKqE0XxtknugRdx4-23">
                    <mxGeometry relative="1" as="geometry">
                        <mxPoint x="50" y="350" as="sourcePoint"/>
                        <Array as="points">
                            <mxPoint x="75" y="350"/>
                        </Array>
                    </mxGeometry>
                </mxCell>
                <mxCell id="VxFzKKqE0XxtknugRdx4-25" value="" style="html=1;points=[];perimeter=orthogonalPerimeter;" vertex="1" parent="VxFzKKqE0XxtknugRdx4-21">
                    <mxGeometry x="45" y="530" width="10" height="130" as="geometry"/>
                </mxCell>
                <mxCell id="VxFzKKqE0XxtknugRdx4-26" value="" style="html=1;points=[];perimeter=orthogonalPerimeter;" vertex="1" parent="VxFzKKqE0XxtknugRdx4-21">
                    <mxGeometry x="51" y="590" width="10" height="40" as="geometry"/>
                </mxCell>
                <mxCell id="VxFzKKqE0XxtknugRdx4-27" value="验收词条" style="edgeStyle=orthogonalEdgeStyle;html=1;align=left;spacingLeft=2;endArrow=block;rounded=0;entryX=1;entryY=0;" edge="1" parent="VxFzKKqE0XxtknugRdx4-21" source="VxFzKKqE0XxtknugRdx4-25" target="VxFzKKqE0XxtknugRdx4-26">
                    <mxGeometry relative="1" as="geometry">
                        <mxPoint x="60" y="570" as="sourcePoint"/>
                        <Array as="points">
                            <mxPoint x="85" y="570"/>
                            <mxPoint x="85" y="590"/>
                        </Array>
                    </mxGeometry>
                </mxCell>
                <mxCell id="VxFzKKqE0XxtknugRdx4-28" value="翻译" style="shape=umlActor;verticalLabelPosition=bottom;labelBackgroundColor=#ffffff;verticalAlign=top;html=1;" vertex="1" parent="1">
                    <mxGeometry x="925" y="-10" width="30" height="60" as="geometry"/>
                </mxCell>
                <mxCell id="VxFzKKqE0XxtknugRdx4-29" style="edgeStyle=orthogonalEdgeStyle;rounded=0;orthogonalLoop=1;jettySize=auto;html=1;entryX=0.2;entryY=0.15;entryDx=0;entryDy=0;entryPerimeter=0;" edge="1" parent="1" source="VxFzKKqE0XxtknugRdx4-2" target="VxFzKKqE0XxtknugRdx4-7">
                    <mxGeometry relative="1" as="geometry">
                        <Array as="points">
                            <mxPoint x="320" y="216"/>
                            <mxPoint x="320" y="216"/>
                        </Array>
                    </mxGeometry>
                </mxCell>
                <mxCell id="VxFzKKqE0XxtknugRdx4-30" value="1.1 交付文案" style="text;html=1;align=center;verticalAlign=middle;resizable=0;points=[];labelBackgroundColor=#ffffff;" vertex="1" connectable="0" parent="VxFzKKqE0XxtknugRdx4-29">
                    <mxGeometry x="-0.2871" y="1" relative="1" as="geometry">
                        <mxPoint as="offset"/>
                    </mxGeometry>
                </mxCell>
                <mxCell id="VxFzKKqE0XxtknugRdx4-31" style="edgeStyle=orthogonalEdgeStyle;rounded=0;orthogonalLoop=1;jettySize=auto;html=1;entryX=0.1;entryY=0.235;entryDx=0;entryDy=0;entryPerimeter=0;" edge="1" parent="1" source="VxFzKKqE0XxtknugRdx4-9" target="VxFzKKqE0XxtknugRdx4-19">
                    <mxGeometry relative="1" as="geometry">
                        <Array as="points">
                            <mxPoint x="620" y="310"/>
                            <mxPoint x="620" y="307"/>
                        </Array>
                    </mxGeometry>
                </mxCell>
                <mxCell id="VxFzKKqE0XxtknugRdx4-32" value="2.1 提交词条" style="text;html=1;align=center;verticalAlign=middle;resizable=0;points=[];labelBackgroundColor=#ffffff;" vertex="1" connectable="0" parent="VxFzKKqE0XxtknugRdx4-31">
                    <mxGeometry x="0.0186" y="18" relative="1" as="geometry">
                        <mxPoint x="-18" y="16" as="offset"/>
                    </mxGeometry>
                </mxCell>
                <mxCell id="VxFzKKqE0XxtknugRdx4-33" style="edgeStyle=orthogonalEdgeStyle;rounded=0;orthogonalLoop=1;jettySize=auto;html=1;entryX=-0.2;entryY=0.55;entryDx=0;entryDy=0;entryPerimeter=0;" edge="1" parent="1" source="VxFzKKqE0XxtknugRdx4-19" target="VxFzKKqE0XxtknugRdx4-22">
                    <mxGeometry relative="1" as="geometry">
                        <Array as="points">
                            <mxPoint x="760" y="354"/>
                            <mxPoint x="760" y="354"/>
                        </Array>
                    </mxGeometry>
                </mxCell>
                <mxCell id="VxFzKKqE0XxtknugRdx4-34" value="3.1 提供待翻译词条文件" style="text;html=1;align=center;verticalAlign=middle;resizable=0;points=[];labelBackgroundColor=#ffffff;" vertex="1" connectable="0" parent="VxFzKKqE0XxtknugRdx4-33">
                    <mxGeometry x="0.191" y="-4" relative="1" as="geometry">
                        <mxPoint as="offset"/>
                    </mxGeometry>
                </mxCell>
                <mxCell id="VxFzKKqE0XxtknugRdx4-35" style="edgeStyle=orthogonalEdgeStyle;rounded=0;orthogonalLoop=1;jettySize=auto;html=1;entryX=1.4;entryY=0.676;entryDx=0;entryDy=0;entryPerimeter=0;" edge="1" parent="1" source="VxFzKKqE0XxtknugRdx4-23" target="VxFzKKqE0XxtknugRdx4-19">
                    <mxGeometry relative="1" as="geometry">
                        <mxPoint x="730" y="471" as="targetPoint"/>
                        <Array as="points"/>
                    </mxGeometry>
                </mxCell>
                <mxCell id="VxFzKKqE0XxtknugRdx4-36" value="3.1 翻译完成文件" style="text;html=1;align=center;verticalAlign=middle;resizable=0;points=[];labelBackgroundColor=#ffffff;" vertex="1" connectable="0" parent="VxFzKKqE0XxtknugRdx4-35">
                    <mxGeometry x="0.3506" relative="1" as="geometry">
                        <mxPoint x="1" as="offset"/>
                    </mxGeometry>
                </mxCell>
                <mxCell id="VxFzKKqE0XxtknugRdx4-37" value="2.1 词条返回" style="edgeStyle=orthogonalEdgeStyle;html=1;align=left;spacingLeft=2;endArrow=block;rounded=0;entryX=1;entryY=0;" edge="1" parent="1" source="VxFzKKqE0XxtknugRdx4-19" target="VxFzKKqE0XxtknugRdx4-10">
                    <mxGeometry relative="1" as="geometry">
                        <mxPoint x="480" y="490" as="sourcePoint"/>
                        <Array as="points">
                            <mxPoint x="670" y="510"/>
                            <mxPoint x="670" y="510"/>
                        </Array>
                    </mxGeometry>
                </mxCell>
                <mxCell id="VxFzKKqE0XxtknugRdx4-38" style="edgeStyle=orthogonalEdgeStyle;rounded=0;orthogonalLoop=1;jettySize=auto;html=1;entryX=0.1;entryY=0.077;entryDx=0;entryDy=0;entryPerimeter=0;" edge="1" parent="1" source="VxFzKKqE0XxtknugRdx4-11" target="VxFzKKqE0XxtknugRdx4-25">
                    <mxGeometry relative="1" as="geometry"/>
                </mxCell>
                <mxCell id="VxFzKKqE0XxtknugRdx4-39" value="2.2 提供环境" style="text;html=1;align=center;verticalAlign=middle;resizable=0;points=[];labelBackgroundColor=#ffffff;" vertex="1" connectable="0" parent="VxFzKKqE0XxtknugRdx4-38">
                    <mxGeometry y="-68" relative="1" as="geometry">
                        <mxPoint x="-68" y="-65" as="offset"/>
                    </mxGeometry>
                </mxCell>
                <mxCell id="VxFzKKqE0XxtknugRdx4-40" value="" style="edgeStyle=orthogonalEdgeStyle;rounded=0;orthogonalLoop=1;jettySize=auto;html=1;entryX=1.2;entryY=0.1;entryDx=0;entryDy=0;entryPerimeter=0;" edge="1" parent="1" source="VxFzKKqE0XxtknugRdx4-20" target="VxFzKKqE0XxtknugRdx4-13">
                    <mxGeometry relative="1" as="geometry">
                        <Array as="points">
                            <mxPoint x="660" y="734"/>
                            <mxPoint x="660" y="734"/>
                        </Array>
                    </mxGeometry>
                </mxCell>
                <mxCell id="VxFzKKqE0XxtknugRdx4-41" value="词条返回" style="text;html=1;align=center;verticalAlign=middle;resizable=0;points=[];labelBackgroundColor=#ffffff;" vertex="1" connectable="0" parent="VxFzKKqE0XxtknugRdx4-40">
                    <mxGeometry x="-0.0965" y="-3" relative="1" as="geometry">
                        <mxPoint as="offset"/>
                    </mxGeometry>
                </mxCell>
                <mxCell id="VxFzKKqE0XxtknugRdx4-42" style="edgeStyle=orthogonalEdgeStyle;rounded=0;orthogonalLoop=1;jettySize=auto;html=1;entryX=1.1;entryY=0.075;entryDx=0;entryDy=0;entryPerimeter=0;" edge="1" parent="1" source="VxFzKKqE0XxtknugRdx4-26" target="VxFzKKqE0XxtknugRdx4-20">
                    <mxGeometry relative="1" as="geometry">
                        <Array as="points">
                            <mxPoint x="916" y="713"/>
                        </Array>
                    </mxGeometry>
                </mxCell>
                <mxCell id="VxFzKKqE0XxtknugRdx4-43" value="翻译优化文件" style="text;html=1;align=center;verticalAlign=middle;resizable=0;points=[];labelBackgroundColor=#ffffff;" vertex="1" connectable="0" parent="VxFzKKqE0XxtknugRdx4-42">
                    <mxGeometry x="0.3886" y="2" relative="1" as="geometry">
                        <mxPoint as="offset"/>
                    </mxGeometry>
                </mxCell>
                <mxCell id="VxFzKKqE0XxtknugRdx4-44" value="1.1 交付版本" style="edgeStyle=orthogonalEdgeStyle;html=1;align=left;spacingLeft=2;endArrow=block;rounded=0;entryX=1;entryY=0;" edge="1" parent="1" source="VxFzKKqE0XxtknugRdx4-16" target="VxFzKKqE0XxtknugRdx4-4">
                    <mxGeometry relative="1" as="geometry">
                        <mxPoint x="270" y="900" as="sourcePoint"/>
                        <Array as="points">
                            <mxPoint x="295" y="900"/>
                            <mxPoint x="295" y="920"/>
                        </Array>
                    </mxGeometry>
                </mxCell>
                <mxCell id="VxFzKKqE0XxtknugRdx4-45" value="" style="rounded=1;whiteSpace=wrap;html=1;fillColor=none;dashed=1;strokeColor=#FF9933;strokeWidth=2;" vertex="1" parent="1">
                    <mxGeometry x="430" y="680" width="550" height="110" as="geometry"/>
                </mxCell>
                <mxCell id="VxFzKKqE0XxtknugRdx4-46" value="" style="endArrow=none;dashed=1;html=1;" edge="1" parent="1" source="VxFzKKqE0XxtknugRdx4-47">
                    <mxGeometry width="50" height="50" relative="1" as="geometry">
                        <mxPoint x="1010" y="790" as="sourcePoint"/>
                        <mxPoint x="1010" y="820" as="targetPoint"/>
                    </mxGeometry>
                </mxCell>
                <mxCell id="VxFzKKqE0XxtknugRdx4-47" value="可能有多次，可能没有" style="shape=note;whiteSpace=wrap;html=1;backgroundOutline=1;darkOpacity=0.05;rounded=1;fillColor=#ffffff;" vertex="1" parent="1">
                    <mxGeometry x="990" y="820" width="80" height="100" as="geometry"/>
                </mxCell>
                <mxCell id="VxFzKKqE0XxtknugRdx4-48" value="" style="endArrow=none;dashed=1;html=1;" edge="1" parent="1" source="VxFzKKqE0XxtknugRdx4-45" target="VxFzKKqE0XxtknugRdx4-47">
                    <mxGeometry width="50" height="50" relative="1" as="geometry">
                        <mxPoint x="911.25" y="800" as="sourcePoint"/>
                        <mxPoint x="980" y="820" as="targetPoint"/>
                    </mxGeometry>
                </mxCell>
            </root>
        </mxGraphModel>
    </diagram>
    <diagram id="O4sWAqaWhZ-x7Nr1dUiZ" name="示例2">
        <mxGraphModel dx="1645" dy="1776" grid="1" gridSize="10" guides="1" tooltips="1" connect="1" arrows="1" fold="1" page="1" pageScale="1" pageWidth="827" pageHeight="1169" math="0" shadow="0">
            <root>
                <mxCell id="0"/>
                <mxCell id="1" parent="0"/>
                <mxCell id="gkZMLZMeG_RAH6t0LGVv-1" style="edgeStyle=orthogonalEdgeStyle;rounded=0;orthogonalLoop=1;jettySize=auto;html=1;fontFamily=微软雅黑;fontSize=16;" edge="1" parent="1" source="gkZMLZMeG_RAH6t0LGVv-3" target="gkZMLZMeG_RAH6t0LGVv-5">
                    <mxGeometry relative="1" as="geometry"/>
                </mxCell>
                <mxCell id="gkZMLZMeG_RAH6t0LGVv-2" value="1. 登录" style="edgeLabel;html=1;align=center;verticalAlign=middle;resizable=0;points=[];fontFamily=微软雅黑;fontSize=16;" vertex="1" connectable="0" parent="gkZMLZMeG_RAH6t0LGVv-1">
                    <mxGeometry x="0.0216" y="-2" relative="1" as="geometry">
                        <mxPoint as="offset"/>
                    </mxGeometry>
                </mxCell>
                <mxCell id="gkZMLZMeG_RAH6t0LGVv-3" value="用户" style="shape=umlActor;verticalLabelPosition=bottom;verticalAlign=top;html=1;fontFamily=微软雅黑;fontSize=16;" vertex="1" parent="1">
                    <mxGeometry x="-300" y="-11" width="30" height="60" as="geometry"/>
                </mxCell>
                <mxCell id="gkZMLZMeG_RAH6t0LGVv-4" value="MasterGo" style="shape=umlLifeline;perimeter=lifelinePerimeter;whiteSpace=wrap;html=1;container=1;dropTarget=0;collapsible=0;recursiveResize=0;outlineConnect=0;portConstraint=eastwest;newEdgeStyle={&quot;edgeStyle&quot;:&quot;elbowEdgeStyle&quot;,&quot;elbow&quot;:&quot;vertical&quot;,&quot;curved&quot;:0,&quot;rounded&quot;:0};fontFamily=微软雅黑;fontSize=16;" vertex="1" parent="1">
                    <mxGeometry x="-175" y="-86" width="100" height="480" as="geometry"/>
                </mxCell>
                <mxCell id="gkZMLZMeG_RAH6t0LGVv-5" value="" style="html=1;points=[[0,0,0,0,5],[0,1,0,0,-5],[1,0,0,0,5],[1,1,0,0,-5]];perimeter=orthogonalPerimeter;outlineConnect=0;targetShapes=umlLifeline;portConstraint=eastwest;newEdgeStyle={&quot;curved&quot;:0,&quot;rounded&quot;:0};fontFamily=微软雅黑;fontSize=16;" vertex="1" parent="gkZMLZMeG_RAH6t0LGVv-4">
                    <mxGeometry x="45" y="65" width="10" height="80" as="geometry"/>
                </mxCell>
                <mxCell id="gkZMLZMeG_RAH6t0LGVv-6" value="图表插件" style="shape=umlLifeline;perimeter=lifelinePerimeter;whiteSpace=wrap;html=1;container=1;dropTarget=0;collapsible=0;recursiveResize=0;outlineConnect=0;portConstraint=eastwest;newEdgeStyle={&quot;edgeStyle&quot;:&quot;elbowEdgeStyle&quot;,&quot;elbow&quot;:&quot;vertical&quot;,&quot;curved&quot;:0,&quot;rounded&quot;:0};fontFamily=微软雅黑;fontSize=16;" vertex="1" parent="1">
                    <mxGeometry x="22" y="-86" width="100" height="480" as="geometry"/>
                </mxCell>
                <mxCell id="gkZMLZMeG_RAH6t0LGVv-7" value="" style="html=1;points=[[0,0,0,0,5],[0,1,0,0,-5],[1,0,0,0,5],[1,1,0,0,-5]];perimeter=orthogonalPerimeter;outlineConnect=0;targetShapes=umlLifeline;portConstraint=eastwest;newEdgeStyle={&quot;curved&quot;:0,&quot;rounded&quot;:0};fontFamily=微软雅黑;fontSize=16;" vertex="1" parent="gkZMLZMeG_RAH6t0LGVv-6">
                    <mxGeometry x="45" y="122" width="10" height="136" as="geometry"/>
                </mxCell>
                <mxCell id="gkZMLZMeG_RAH6t0LGVv-8" value="" style="html=1;points=[[0,0,0,0,5],[0,1,0,0,-5],[1,0,0,0,5],[1,1,0,0,-5]];perimeter=orthogonalPerimeter;outlineConnect=0;targetShapes=umlLifeline;portConstraint=eastwest;newEdgeStyle={&quot;curved&quot;:0,&quot;rounded&quot;:0};fontFamily=微软雅黑;fontSize=16;" vertex="1" parent="gkZMLZMeG_RAH6t0LGVv-6">
                    <mxGeometry x="44" y="304" width="10" height="40" as="geometry"/>
                </mxCell>
                <mxCell id="gkZMLZMeG_RAH6t0LGVv-9" value="2.2 数据写入" style="html=1;align=left;spacingLeft=2;endArrow=block;rounded=0;edgeStyle=orthogonalEdgeStyle;curved=0;rounded=0;fontFamily=微软雅黑;fontSize=16;" edge="1" parent="gkZMLZMeG_RAH6t0LGVv-6" target="gkZMLZMeG_RAH6t0LGVv-8">
                    <mxGeometry x="0.0118" relative="1" as="geometry">
                        <mxPoint x="49" y="284" as="sourcePoint"/>
                        <Array as="points">
                            <mxPoint x="79" y="314"/>
                        </Array>
                        <mxPoint as="offset"/>
                    </mxGeometry>
                </mxCell>
                <mxCell id="gkZMLZMeG_RAH6t0LGVv-10" value="" style="html=1;points=[[0,0,0,0,5],[0,1,0,0,-5],[1,0,0,0,5],[1,1,0,0,-5]];perimeter=orthogonalPerimeter;outlineConnect=0;targetShapes=umlLifeline;portConstraint=eastwest;newEdgeStyle={&quot;curved&quot;:0,&quot;rounded&quot;:0};fontFamily=微软雅黑;fontSize=16;" vertex="1" parent="gkZMLZMeG_RAH6t0LGVv-6">
                    <mxGeometry x="45" y="368" width="10" height="80" as="geometry"/>
                </mxCell>
                <mxCell id="gkZMLZMeG_RAH6t0LGVv-11" value="CCODE" style="shape=umlLifeline;perimeter=lifelinePerimeter;whiteSpace=wrap;html=1;container=1;dropTarget=0;collapsible=0;recursiveResize=0;outlineConnect=0;portConstraint=eastwest;newEdgeStyle={&quot;edgeStyle&quot;:&quot;elbowEdgeStyle&quot;,&quot;elbow&quot;:&quot;vertical&quot;,&quot;curved&quot;:0,&quot;rounded&quot;:0};flipH=1;fontFamily=微软雅黑;fontSize=16;" vertex="1" parent="1">
                    <mxGeometry x="409" y="-86" width="100" height="480" as="geometry"/>
                </mxCell>
                <mxCell id="gkZMLZMeG_RAH6t0LGVv-12" value="" style="html=1;points=[[0,0,0,0,5],[0,1,0,0,-5],[1,0,0,0,5],[1,1,0,0,-5]];perimeter=orthogonalPerimeter;outlineConnect=0;targetShapes=umlLifeline;portConstraint=eastwest;newEdgeStyle={&quot;curved&quot;:0,&quot;rounded&quot;:0};fontFamily=微软雅黑;fontSize=16;" vertex="1" parent="gkZMLZMeG_RAH6t0LGVv-11">
                    <mxGeometry x="45" y="88" width="10" height="40" as="geometry"/>
                </mxCell>
                <mxCell id="gkZMLZMeG_RAH6t0LGVv-13" value="4.1 认证" style="html=1;align=left;spacingLeft=2;endArrow=block;rounded=0;edgeStyle=orthogonalEdgeStyle;curved=0;rounded=0;fontFamily=微软雅黑;fontSize=16;" edge="1" parent="gkZMLZMeG_RAH6t0LGVv-11" target="gkZMLZMeG_RAH6t0LGVv-12">
                    <mxGeometry x="0.0118" relative="1" as="geometry">
                        <mxPoint x="50" y="68" as="sourcePoint"/>
                        <Array as="points">
                            <mxPoint x="80" y="98"/>
                        </Array>
                        <mxPoint as="offset"/>
                    </mxGeometry>
                </mxCell>
                <mxCell id="gkZMLZMeG_RAH6t0LGVv-14" value="" style="html=1;points=[[0,0,0,0,5],[0,1,0,0,-5],[1,0,0,0,5],[1,1,0,0,-5]];perimeter=orthogonalPerimeter;outlineConnect=0;targetShapes=umlLifeline;portConstraint=eastwest;newEdgeStyle={&quot;curved&quot;:0,&quot;rounded&quot;:0};fontFamily=微软雅黑;fontSize=16;" vertex="1" parent="gkZMLZMeG_RAH6t0LGVv-11">
                    <mxGeometry x="45" y="177" width="10" height="80" as="geometry"/>
                </mxCell>
                <mxCell id="gkZMLZMeG_RAH6t0LGVv-15" value="设计稿" style="shape=umlLifeline;perimeter=lifelinePerimeter;whiteSpace=wrap;html=1;container=1;dropTarget=0;collapsible=0;recursiveResize=0;outlineConnect=0;portConstraint=eastwest;newEdgeStyle={&quot;edgeStyle&quot;:&quot;elbowEdgeStyle&quot;,&quot;elbow&quot;:&quot;vertical&quot;,&quot;curved&quot;:0,&quot;rounded&quot;:0};fontFamily=微软雅黑;fontSize=16;" vertex="1" parent="1">
                    <mxGeometry x="212" y="-86" width="100" height="480" as="geometry"/>
                </mxCell>
                <mxCell id="gkZMLZMeG_RAH6t0LGVv-16" value="" style="html=1;points=[[0,0,0,0,5],[0,1,0,0,-5],[1,0,0,0,5],[1,1,0,0,-5]];perimeter=orthogonalPerimeter;outlineConnect=0;targetShapes=umlLifeline;portConstraint=eastwest;newEdgeStyle={&quot;curved&quot;:0,&quot;rounded&quot;:0};fontFamily=微软雅黑;fontSize=16;" vertex="1" parent="gkZMLZMeG_RAH6t0LGVv-15">
                    <mxGeometry x="45" y="378" width="10" height="80" as="geometry"/>
                </mxCell>
                <mxCell id="gkZMLZMeG_RAH6t0LGVv-17" value="2.1 拦截无编辑权限用户" style="html=1;verticalAlign=bottom;endArrow=block;curved=0;rounded=0;entryX=0;entryY=0;entryDx=0;entryDy=5;fontFamily=微软雅黑;fontSize=16;" edge="1" parent="1" source="gkZMLZMeG_RAH6t0LGVv-5" target="gkZMLZMeG_RAH6t0LGVv-7">
                    <mxGeometry relative="1" as="geometry">
                        <mxPoint x="-3" y="41" as="sourcePoint"/>
                    </mxGeometry>
                </mxCell>
                <mxCell id="gkZMLZMeG_RAH6t0LGVv-18" value="4.2 允许请求接口" style="html=1;verticalAlign=bottom;endArrow=block;curved=0;rounded=0;entryX=0;entryY=0;entryDx=0;entryDy=5;fontFamily=微软雅黑;fontSize=16;" edge="1" parent="1" source="gkZMLZMeG_RAH6t0LGVv-7" target="gkZMLZMeG_RAH6t0LGVv-14">
                    <mxGeometry x="0.0027" relative="1" as="geometry">
                        <mxPoint x="384" y="96" as="sourcePoint"/>
                        <mxPoint as="offset"/>
                    </mxGeometry>
                </mxCell>
                <mxCell id="gkZMLZMeG_RAH6t0LGVv-19" value="4.3 返回结果" style="html=1;verticalAlign=bottom;endArrow=open;dashed=1;endSize=8;curved=0;rounded=0;exitX=0;exitY=1;exitDx=0;exitDy=-5;entryX=1;entryY=1;entryDx=0;entryDy=-5;entryPerimeter=0;fontFamily=微软雅黑;fontSize=16;" edge="1" parent="1" source="gkZMLZMeG_RAH6t0LGVv-14" target="gkZMLZMeG_RAH6t0LGVv-7">
                    <mxGeometry x="0.0026" relative="1" as="geometry">
                        <mxPoint x="384" y="166" as="targetPoint"/>
                        <mxPoint as="offset"/>
                    </mxGeometry>
                </mxCell>
                <mxCell id="gkZMLZMeG_RAH6t0LGVv-20" value="2.3 发送消息" style="html=1;verticalAlign=bottom;endArrow=block;curved=0;rounded=0;entryX=0;entryY=0;entryDx=0;entryDy=5;fontFamily=微软雅黑;fontSize=16;" edge="1" parent="1" source="gkZMLZMeG_RAH6t0LGVv-10" target="gkZMLZMeG_RAH6t0LGVv-16">
                    <mxGeometry relative="1" as="geometry">
                        <mxPoint x="187" y="297" as="sourcePoint"/>
                        <mxPoint as="offset"/>
                    </mxGeometry>
                </mxCell>
            </root>
        </mxGraphModel>
    </diagram>
</mxfile>